HIERARCHY
ROOT Hips
{
    OFFSET 0.000000 0.000000 0.000000
    CHANNELS 6 Xposition Yposition Zposition Zrotation Yrotation Xrotation
    JOINT LeftUpLeg
    {
        OFFSET 7.693656 -10.129610 4.737288
        CHANNELS 3 Zrotation Yrotation Xrotation
        JOINT LeftLeg
        {
            OFFSET 13.818113 -37.964970 0.000000
            CHANNELS 3 Zrotation Yrotation Xrotation
            JOINT LeftFoot
            {
                OFFSET 14.462082 -39.734261 0.000000
                CHANNELS 3 Zrotation Yrotation Xrotation
                JOINT LeftToeBase
                {
                    OFFSET 0.889783 -2.444646 13.109402
                    CHANNELS 3 Zrotation Yrotation Xrotation
                    End Site
                    {
                        OFFSET 0.000000 0.000000 0.000000
                    }
                }
            }
        }
    }
    JOINT RightUpLeg
    {
        OFFSET -7.368877 -10.129610 4.737288
        CHANNELS 3 Zrotation Yrotation Xrotation
        JOINT RightLeg
        {
            OFFSET -14.351057 -39.429237 0.000000
            CHANNELS 3 Zrotation Yrotation Xrotation
            JOINT RightFoot
            {
                OFFSET -14.496286 -39.828186 0.000000
                CHANNELS 3 Zrotation Yrotation Xrotation
                JOINT RightToeBase
                {
                    OFFSET -0.929802 -2.554599 13.338564
                    CHANNELS 3 Zrotation Yrotation Xrotation
                    End Site
                    {
                        OFFSET 0.000000 0.000000 0.000000
                    }
                }
            }
        }
    }
    JOINT Spine
    {
        OFFSET 0.159567 11.489684 -1.091514
        CHANNELS 3 Zrotation Yrotation Xrotation
        JOINT Spine1
        {
            OFFSET 0.320150 11.564529 -0.241298
            CHANNELS 3 Zrotation Yrotation Xrotation
            JOINT Neck1
            {
                OFFSET -0.305757 9.856478 0.970950
                CHANNELS 3 Zrotation Yrotation Xrotation
                JOINT Head
                {
                    OFFSET 0.587413 9.941821 -0.699736
                    CHANNELS 3 Zrotation Yrotation Xrotation
                    End Site
                    {
                        OFFSET 0.000000 0.000000 0.000000
                    }
                }
            }
            JOINT LeftShoulder
            {
                OFFSET 0.000000 0.000000 0.000000
                CHANNELS 3 Zrotation Yrotation Xrotation
                JOINT LeftArm
                {
                    OFFSET 18.978788 6.778303 -1.756594
                    CHANNELS 3 Zrotation Yrotation Xrotation
                    JOINT LeftForeArm
                    {
                        OFFSET 28.126045 -0.000000 -0.000000
                        CHANNELS 3 Zrotation Yrotation Xrotation
                        JOINT LeftHand
                        {
                            OFFSET 19.662607 -0.000000 -0.000000
                            CHANNELS 3 Zrotation Yrotation Xrotation
                            End Site
                            {
                                OFFSET 0.000000 0.000000 0.000000
                            }
                        }
                    }
                }
            }
            JOINT RightShoulder
            {
                OFFSET 0.000000 0.000000 0.000000
                CHANNELS 3 Zrotation Yrotation Xrotation
                JOINT RightArm
                {
                    OFFSET -17.704226 7.755688 -2.284007
                    CHANNELS 3 Zrotation Yrotation Xrotation
                    JOINT RightForeArm
                    {
                        OFFSET -29.587381 -0.000000 -0.000000
                        CHANNELS 3 Zrotation Yrotation Xrotation
                        JOINT RightHand
                        {
                            OFFSET -19.440273 -0.000000 -0.000000
                            CHANNELS 3 Zrotation Yrotation Xrotation
                            End Site
                            {
                                OFFSET 0.000000 0.000000 0.000000
                            }
                        }
                    }
                }
            }
        }
    }
}
MOTION
Frames: 9
Frame Time: 0.016667
-65.530197 95.175980 -3.832796 -18.181684 80.308167 -6.590881 -18.211773 15.964406 10.075317 -1.390780 0.806950 10.606590 0.192197 -0.385798 9.332675 -0.026100 0.000000 -73.295509 21.991400 12.209449 -23.428343 3.960142 0.971898 3.502113 0.710919 2.417348 5.732628 -0.200800 0.000000 -25.386801 11.973177 -10.725989 -13.199289 -5.454043 -6.169944 1.506988 4.651725 -20.016827 -9.117288 0.000000 0.000000 0.000000 -7.461731 3.521093 1.332256 -58.630821 -12.051497 8.868123 -2.852149 -43.008308 -0.010672 5.372853 -1.345914 -0.071331 13.916074 -18.236240 0.006851 63.427105 -13.135750 1.089611 2.754603 44.740688 0.007073 1.051690 3.155162 0.027451 
-63.638027 95.400757 -3.738777 -23.082949 79.577583 -11.631449 -17.275692 15.498659 9.667775 -0.972789 1.073727 13.532470 0.357004 0.171944 12.035731 0.038000 0.000000 -75.587196 22.994848 13.255128 -22.502048 4.044161 0.743106 5.427014 0.658913 2.573291 4.180010 -0.159100 -0.000000 -16.560902 13.201511 -10.659674 -13.100896 -5.435644 -6.208841 1.447611 4.634447 -19.857170 -9.057397 0.000000 0.000000 0.000000 -7.476917 3.578620 1.250229 -60.427750 -11.044583 8.190497 -2.851980 -41.671947 -0.010441 5.464569 -1.502141 -0.079843 13.940719 -18.073318 -0.024991 62.943508 -12.705635 1.037800 2.754644 44.787220 0.006974 0.959048 3.136787 0.024750 
-61.804916 95.656494 -3.573741 -25.941984 78.946747 -14.690817 -16.619528 15.093989 8.834651 -0.578177 1.346789 17.033142 0.552589 0.409478 15.252275 0.001600 0.000000 -76.118202 23.814474 14.085433 -21.275045 4.113559 0.622434 6.866866 0.543854 2.471394 2.087032 -0.182600 -0.000000 -6.574004 13.835981 -10.653255 -12.887431 -5.445336 -6.236985 1.395871 4.770773 -19.683479 -8.985042 0.000000 0.000000 0.000000 -7.097574 3.553016 1.161050 -62.329826 -9.875970 7.540741 -2.837875 -40.227295 -0.010092 5.438745 -1.490812 -0.078569 14.171144 -17.901043 -0.060706 62.645763 -12.149550 1.014613 2.747617 44.773766 0.006821 0.805964 3.100744 0.020251 
-60.036736 95.921608 -3.338126 -27.500078 78.524513 -16.503271 -16.112991 14.990307 7.477192 -0.231208 1.596504 21.109978 0.792837 0.434439 18.806822 -0.134600 0.000000 -74.291702 24.481262 14.568564 -19.791374 4.160360 0.592826 7.705613 0.398252 2.198195 0.054164 179.777298 0.000000 -2.677201 13.928355 -10.712076 -12.577835 -5.490268 -6.261902 1.352777 5.052011 -19.542765 -8.913055 0.000000 0.000000 0.000000 -6.409106 3.425859 1.076529 -64.190994 -8.575221 7.013399 -2.816783 -38.814953 -0.009560 5.260248 -1.278945 -0.065693 14.609283 -17.764633 -0.098915 62.528839 -11.492765 1.071508 2.731637 44.762886 0.006666 0.609066 3.078304 0.014657 
-58.329224 96.176888 -3.044855 -28.341789 78.342377 -17.641472 -15.663967 15.290036 5.603570 0.049529 1.797432 25.634418 1.091845 0.781537 22.249945 -0.140200 -0.000001 -69.704903 25.030413 14.611280 -18.170979 4.183561 0.619517 8.003074 0.268231 1.892800 -1.462225 179.750504 -0.000001 -8.979207 13.593279 -10.815064 -12.194691 -5.571179 -6.281908 1.316091 5.439568 -19.459812 -8.850650 0.000000 0.000000 0.000000 -5.550664 3.205285 1.003620 -65.882973 -7.175625 6.698187 -2.795357 -37.576431 -0.008810 4.934235 -0.894923 -0.044404 15.216215 -17.683151 -0.135624 62.580933 -10.756003 1.230384 2.708234 44.775074 0.006576 0.389591 3.107161 0.008769 
-56.671730 96.409264 -2.715261 -28.877592 78.365494 -18.503199 -15.229686 15.964164 3.299586 0.255603 1.952366 30.416647 1.442281 2.174857 24.924950 0.415401 0.000000 -62.612919 25.500338 14.201793 -16.560093 4.193124 0.668639 7.967189 0.186103 1.700640 -2.412890 179.745697 -0.000001 -11.945304 12.981149 -10.922673 -11.754863 -5.683098 -6.287258 1.282591 5.876055 -19.424156 -8.802510 0.000000 0.000000 0.000000 -4.677957 2.939443 0.945139 -67.319283 -5.725166 6.653968 -2.777169 -36.606876 -0.007876 4.510412 -0.431063 -0.021597 15.921387 -17.637253 -0.166268 62.795422 -9.954669 1.475587 2.681741 44.786396 0.006598 0.171006 3.210233 0.002786 
-55.055546 96.612366 -2.370800 -29.392172 78.518730 -19.360409 -14.799898 16.880379 0.690036 0.397806 2.091171 35.248581 1.820001 5.041655 26.160894 1.825800 0.000000 -54.127514 25.925596 13.458933 -15.049999 4.199312 0.719176 7.815187 0.148828 1.661155 -3.021790 179.758698 -0.000000 -12.718408 12.238536 -10.989084 -11.263058 -5.817348 -6.263541 1.256418 6.312561 -19.438187 -8.780266 0.000000 0.000000 0.000000 -3.918853 2.702394 0.898035 -68.460999 -4.293362 6.892810 -2.761340 -35.933823 -0.006864 4.067352 0.000206 -0.003471 16.651997 -17.623426 -0.186412 63.162918 -9.043487 1.820781 2.657832 44.724667 0.006704 -0.052072 3.375593 -0.003793 
-53.472736 96.787994 -2.024799 -29.817284 78.735596 -20.110670 -14.461903 17.789206 -2.097003 0.496097 2.247129 39.907856 2.195781 9.109550 25.513140 3.844300 0.000000 -45.830399 26.287046 12.541168 -13.728432 4.198498 0.753477 7.764089 0.139155 1.759582 -3.540113 179.786896 0.000000 -12.150404 11.426362 -10.975089 -10.765757 -5.968256 -6.196961 1.229502 6.705647 -19.406801 -8.762742 0.000000 0.000000 0.000000 -3.336537 2.556905 0.863266 -69.316711 -2.908332 7.346951 -2.745410 -35.526917 -0.005896 3.701117 0.288185 0.006673 17.356298 -17.533180 -0.195884 63.696144 -8.102285 2.162586 2.639421 44.578381 0.006841 -0.230345 3.557162 -0.009669 
-51.921085 96.942955 -1.679497 -29.993748 78.984360 -20.545578 -14.305316 18.417284 -4.974429 0.568269 2.436117 44.210850 2.534260 13.418610 22.992825 5.683603 0.000001 -38.810600 26.546146 11.652975 -12.604627 4.180173 0.771530 7.878818 0.127134 1.880413 -4.132917 179.817993 -0.000000 -11.026903 10.547810 -10.859075 -10.312031 -6.124902 -6.079826 1.219898 7.059185 -19.357386 -8.767598 0.000000 0.000000 0.000000 -2.937993 2.586539 0.831676 -69.923912 -1.651156 7.948697 -2.729052 -35.291702 -0.005075 3.481937 0.398238 0.010028 18.019495 -17.394375 -0.199087 64.364708 -7.050699 2.594006 2.627585 44.286083 0.006918 -0.409073 3.710188 -0.015944 
